<svg xmlns="http://www.w3.org/2000/svg" viewBox="0 0 1440 320"><path fill="#0648a9" fill-opacity="1" 
d="M0,192L30,197.3C60,203,120,213,180,213.3C240,213,300,203,360,181.3C420,160,480,128,540,138.7C600,149,660,203,720,192C780,181,840,107,900,101.3C960,96,1020,160,1080,160C1140,160,1200,96,1260,69.3C1320,43,1380,53,1410,58.7L1440,64L1440,320L1410,320C1380,320,1320,320,1260,320C1200,320,1140,320,1080,320C1020,320,960,320,900,320C840,320,780,320,720,320C660,320,600,320,540,320C480,320,420,320,360,320C300,320,240,320,180,320C120,320,60,320,30,320L0,320Z"></path></svg>